<svg width="25" height="25" viewBox="0 0 25 25" fill="none" xmlns="http://www.w3.org/2000/svg">
<path d="M0 9.79272C0 6.55542 2.99665 3.93335 6.69643 3.93335H7.14286C8.13058 3.93335 8.92857 4.63159 8.92857 5.49585C8.92857 6.36011 8.13058 7.05835 7.14286 7.05835H6.69643C4.9721 7.05835 3.57143 8.28394 3.57143 9.79272V10.1833H7.14286C9.11272 10.1833 10.7143 11.5847 10.7143 13.3083V16.4333C10.7143 18.157 9.11272 19.5583 7.14286 19.5583H3.57143C1.60156 19.5583 0 18.157 0 16.4333V14.8708V13.3083V9.79272ZM14.2857 9.79272C14.2857 6.55542 17.2824 3.93335 20.9821 3.93335H21.4286C22.4163 3.93335 23.2143 4.63159 23.2143 5.49585C23.2143 6.36011 22.4163 7.05835 21.4286 7.05835H20.9821C19.2578 7.05835 17.8571 8.28394 17.8571 9.79272V10.1833H21.4286C23.3984 10.1833 25 11.5847 25 13.3083V16.4333C25 18.157 23.3984 19.5583 21.4286 19.5583H17.8571C15.8873 19.5583 14.2857 18.157 14.2857 16.4333V14.8708V13.3083V9.79272Z" fill="white"/>
</svg>
