<svg width="6" height="8" viewBox="0 0 6 8" fill="none" xmlns="http://www.w3.org/2000/svg">
<path d="M0.75 1.66433C0.750824 1.50673 0.779575 1.35162 0.833909 1.21165C0.888243 1.07168 0.96662 0.95081 1.06265 0.858908C1.15868 0.767005 1.26964 0.706669 1.38649 0.682818C1.50333 0.658968 1.62275 0.672279 1.735 0.721667L1.78125 0.744333L1.81275 0.765L4.871 3.12833C4.98419 3.21174 5.07929 3.33277 5.14705 3.47965C5.21481 3.62653 5.25293 3.79428 5.25771 3.9666C5.26249 4.13892 5.23376 4.30997 5.17433 4.46312C5.11489 4.61628 5.02676 4.74633 4.9185 4.84067L4.87525 4.875L1.81275 7.24167L1.7815 7.262C1.67066 7.32203 1.55066 7.34583 1.43151 7.33143C1.31236 7.31702 1.19753 7.26481 1.0966 7.17917C0.995667 7.09354 0.911564 6.97694 0.851313 6.83914C0.791062 6.70133 0.75641 6.5463 0.75025 6.387L0.75 6.36767L0.7505 6.34767L0.75 6.33333L0.75 1.66433Z" fill="#757575"/>
</svg>
