<svg width="44" height="45" viewBox="0 0 44 45" fill="none" xmlns="http://www.w3.org/2000/svg">
<path d="M40.75 17.8125H26.6875V3.75C26.6875 2.02441 25.2881 0.625 23.5625 0.625H20.4375C18.7119 0.625 17.3125 2.02441 17.3125 3.75V17.8125H3.25C1.52441 17.8125 0.125 19.2119 0.125 20.9375V24.0625C0.125 25.7881 1.52441 27.1875 3.25 27.1875H17.3125V41.25C17.3125 42.9756 18.7119 44.375 20.4375 44.375H23.5625C25.2881 44.375 26.6875 42.9756 26.6875 41.25V27.1875H40.75C42.4756 27.1875 43.875 25.7881 43.875 24.0625V20.9375C43.875 19.2119 42.4756 17.8125 40.75 17.8125Z" fill="#C8BCAC"/>
</svg>
