<svg width="8" height="6" viewBox="0 0 8 6" fill="none" xmlns="http://www.w3.org/2000/svg">
<path d="M1.66433 5.25C1.50673 5.24918 1.35162 5.22043 1.21165 5.16609C1.07168 5.11176 0.95081 5.03338 0.858908 4.93735C0.767005 4.84132 0.706669 4.73036 0.682818 4.61351C0.658968 4.49667 0.67228 4.37725 0.721667 4.265L0.744333 4.21875L0.765 4.18725L3.12833 1.129C3.21174 1.01581 3.33277 0.920712 3.47965 0.852953C3.62653 0.785195 3.79428 0.747075 3.9666 0.742294C4.13892 0.737514 4.30997 0.766237 4.46312 0.825672C4.61628 0.885108 4.74633 0.973236 4.84067 1.0815L4.875 1.12475L7.24167 4.18725L7.262 4.2185C7.32203 4.32934 7.34583 4.44934 7.33143 4.56849C7.31702 4.68764 7.26481 4.80247 7.17917 4.9034C7.09354 5.00433 6.97694 5.08844 6.83914 5.14869C6.70133 5.20894 6.5463 5.24359 6.387 5.24975L6.36767 5.25L6.34767 5.2495L6.33333 5.25L1.66433 5.25Z" fill="#C8BCAC"/>
</svg>
