<svg width="8" height="6" viewBox="0 0 8 6" fill="none" xmlns="http://www.w3.org/2000/svg">
<g clip-path="url(#clip0_1_2)">
<path d="M6.33567 0.75C6.49327 0.750824 6.64838 0.779575 6.78835 0.833909C6.92832 0.888243 7.04919 0.96662 7.14109 1.06265C7.23299 1.15868 7.29333 1.26964 7.31718 1.38649C7.34103 1.50333 7.32772 1.62275 7.27833 1.735L7.25567 1.78125L7.235 1.81275L4.87167 4.871C4.78826 4.98419 4.66723 5.07929 4.52035 5.14705C4.37347 5.2148 4.20572 5.25293 4.0334 5.25771C3.86108 5.26249 3.69003 5.23376 3.53688 5.17433C3.38372 5.11489 3.25367 5.02676 3.15933 4.9185L3.125 4.87525L0.758333 1.81275L0.738 1.7815C0.677971 1.67066 0.654166 1.55066 0.668575 1.43151C0.682983 1.31236 0.735186 1.19753 0.820826 1.0966C0.906465 0.995667 1.02306 0.911564 1.16086 0.851313C1.29867 0.791062 1.4537 0.75641 1.613 0.75025L1.63233 0.75L1.65233 0.7505L1.66667 0.75H6.33567Z" fill="#757575"/>
</g>
<defs>
<clipPath id="clip0_1_2">
<rect width="8" height="6" fill="white"/>
</clipPath>
</defs>
</svg>
